<svg xmlns="http://www.w3.org/2000/svg" width="587.18" height="76" viewBox="0 0 587.18 76">
  <g id="Group_1048" data-name="Group 1048" transform="translate(-429 -227)">
    <g id="Payment_Method_Visa" data-name="Payment Method/Visa" transform="translate(429 227)">
      <g id="BASE" fill="#fff" stroke="#d9d9d9" stroke-width="2.646">
        <rect width="110.833" height="76" rx="15.875" stroke="none"/>
        <rect x="1.323" y="1.323" width="108.187" height="73.354" rx="14.552" fill="none"/>
      </g>
      <path id="visa-logo" d="M44.74,24.76h0c-.178,0-.359,0-.538-.007a18.291,18.291,0,0,1-6.9-1.293l1.12-5.174a16.047,16.047,0,0,0,6.528,1.479c1.856,0,3.729-.742,3.729-2.4a1.526,1.526,0,0,0-.606-1.478,10.505,10.505,0,0,0-2.563-1.477,14.144,14.144,0,0,1-3.546-2.333,6.449,6.449,0,0,1-1.335-1.8A5.3,5.3,0,0,1,40.1,7.942C40.1,3.34,44.568,0,50.73,0a16.076,16.076,0,0,1,5.781,1.111l-1.12,5.17a11.758,11.758,0,0,0-5.113-1.154c-.35,0-.7.016-1.041.047a2.9,2.9,0,0,0-1.726.531,2.225,2.225,0,0,0-.887,1.5c0,1.105,1.424,1.843,3.074,2.7,2.537,1.313,5.693,2.947,5.693,6.722C55.391,21.567,51.21,24.76,44.74,24.76Zm32.844-.192H71.8l-.746-3.509H63.035l-1.3,3.509H55.2L64.528,2.4A2.812,2.812,0,0,1,67.14.554h5.408l5.035,24.014ZM68.074,7.02h0l-3.359,9.05h5.222L68.074,7.02ZM33.2,24.568H26.858L32.079.554H38.42Zm-13.8,0H12.683L7.647,5.359A3.1,3.1,0,0,0,6.155,3.326,21.951,21.951,0,0,0,0,1.293V.554H10.816a2.819,2.819,0,0,1,2.8,2.4l2.613,13.856L22.939.554h6.528Z" transform="translate(14.25 26.917)" fill="#172b85"/>
    </g>
    <g id="Payment_Method_Discover" data-name="Payment Method/Discover" transform="translate(786.26 227)">
      <g id="BASE-2" data-name="BASE" fill="#fff" stroke="#d9d9d9" stroke-width="2.646">
        <rect width="110.833" height="76" rx="15.875" stroke="none"/>
        <rect x="1.323" y="1.323" width="108.187" height="73.354" rx="14.552" fill="none"/>
      </g>
      <g id="Discover" transform="translate(10.45 30.083)">
        <path id="Stripe" d="M62.542,0,0,18.208H62.542Z" transform="translate(36.208 26.125)" fill="#fd6020"/>
        <path id="DISC-VER" d="M64.686,15.834H63.138L56.773.351h3.1l3.957,10.208L67.955.351h3.1L64.686,15.833Zm-28.042,0a7.633,7.633,0,0,1-5.484-2.318,7.878,7.878,0,0,1-1.653-2.491,7.787,7.787,0,0,1-.6-3.017A7.429,7.429,0,0,1,36.229.328c.194,0,.391.008.587.022a6.556,6.556,0,0,1,3.613.851V4.6a4.854,4.854,0,0,0-3.613-1.7,5.247,5.247,0,0,0-3.58,1.763A4.829,4.829,0,0,0,32,8.177v.34a4.626,4.626,0,0,0,1.462,3.4,5.109,5.109,0,0,0,3.527,1.361,4.49,4.49,0,0,0,3.44-1.7v3.4A9.373,9.373,0,0,1,36.644,15.833ZM23.2,15.673h0c-.106,0-.214,0-.32-.01a6.248,6.248,0,0,1-2.968-.744,5.447,5.447,0,0,1-2.193-2.148L19.612,10.9a3.4,3.4,0,0,0,1.226,1.467,3.343,3.343,0,0,0,1.871.574h.172a2.011,2.011,0,0,0,1.419-.659,2.278,2.278,0,0,0,.645-1.553,1.78,1.78,0,0,0-.86-1.531,10.653,10.653,0,0,0-2.065-.851,5.845,5.845,0,0,1-2.838-1.595,3.643,3.643,0,0,1-.774-2.488v-.17A4.4,4.4,0,0,1,22.749,0c.1,0,.2,0,.3.011a6.843,6.843,0,0,1,4.3,1.7L25.806,3.753A3.6,3.6,0,0,0,23.4,2.563a1.625,1.625,0,0,0-.264-.022,1.684,1.684,0,0,0-1.184.512,2.239,2.239,0,0,0-.617,1.211c0,.851.531,1.2,2.236,1.872a10,10,0,0,1,3.462,1.956,3.682,3.682,0,0,1,1.011,2.467v.511A4.831,4.831,0,0,1,23.2,15.673ZM4.88,15.519c-.195,0-.39-.009-.58-.026H0V.351H5.161a7.592,7.592,0,0,1,5.226,2.361,7.2,7.2,0,0,1,2,5.3,7.743,7.743,0,0,1-2.752,5.784A7.92,7.92,0,0,1,4.88,15.519ZM2.925,2.9V12.941h.86a4.455,4.455,0,0,0,.541.033A5.615,5.615,0,0,0,7.742,11.75,5.358,5.358,0,0,0,9.29,7.837,5.221,5.221,0,0,0,7.742,4.094,5.616,5.616,0,0,0,4.325,2.87a4.443,4.443,0,0,0-.541.033ZM85.5,15.493H82.578V.351h4.3a6.108,6.108,0,0,1,3.957,1.127,4.042,4.042,0,0,1,1.377,3.3A4.139,4.139,0,0,1,88.771,9.2l4.645,6.294H89.8L85.847,9.368H85.5v6.125Zm0-12.761V7.326h.86c1.827,0,2.753-.8,2.753-2.382,0-1.447-.952-2.211-2.753-2.211Zm-4.817,12.76H72.428V.351h8.258V2.9H75.353v3.4h5.161V8.858H75.353v4.083h5.333v2.552Zm-64.17,0H13.591V.351h2.925V15.492Z" transform="translate(0 0)"/>
        <path id="O" d="M7.914,0A7.85,7.85,0,0,0,0,7.826a8.105,8.105,0,0,0,7.914,8A7.888,7.888,0,0,0,16,8,8.144,8.144,0,0,0,7.914,0Z" transform="translate(41.289)" fill="#fd6020"/>
      </g>
    </g>
    <g id="Payment_Method_DinersClub" data-name="Payment Method/DinersClub" transform="translate(905.346 227)">
      <g id="BASE-3" data-name="BASE" fill="#fff" stroke="#d9d9d9" stroke-width="2.646">
        <rect width="110.833" height="76" rx="15.875" stroke="none"/>
        <rect x="1.323" y="1.323" width="108.187" height="73.354" rx="14.552" fill="none"/>
      </g>
      <g id="DinersClub" transform="translate(26.917 16.18)">
        <path id="Vector" d="M33.393,45.57C45.735,45.629,57,35.412,57,22.982,57,9.391,45.735-.005,33.393,0H22.77C10.281-.005,0,9.393,0,22.982A22.724,22.724,0,0,0,22.77,45.57Z" fill="#0079be"/>
        <path id="Vector-2" data-name="Vector" d="M20.665,0A20.86,20.86,0,1,0,41.332,20.86,20.767,20.767,0,0,0,20.665,0ZM7.567,20.86A13.239,13.239,0,0,1,15.976,8.522V33.2A13.234,13.234,0,0,1,7.567,20.86ZM25.353,33.2V8.521a13.254,13.254,0,0,1,0,24.682Z" transform="translate(2.156 1.883)" fill="#fff"/>
        <path id="Vector-3" data-name="Vector" d="M33.393,45.57C45.735,45.629,57,35.412,57,22.982,57,9.391,45.735-.005,33.393,0H22.77C10.281-.005,0,9.393,0,22.982A22.724,22.724,0,0,0,22.77,45.57Z" fill="#0079be"/>
        <path id="Vector-4" data-name="Vector" d="M20.665,0A20.86,20.86,0,1,0,41.332,20.86,20.767,20.767,0,0,0,20.665,0ZM7.567,20.86A13.239,13.239,0,0,1,15.976,8.522V33.2A13.234,13.234,0,0,1,7.567,20.86ZM25.353,33.2V8.521a13.254,13.254,0,0,1,0,24.682Z" transform="translate(2.156 1.883)" fill="#fff"/>
      </g>
    </g>
    <g id="Payment_Method_Amex" data-name="Payment Method/Amex" transform="translate(667.173 227)">
      <g id="BASE-4" data-name="BASE" fill="#1f72cd" stroke="#d9d9d9" stroke-width="2.646">
        <rect width="110.833" height="76" rx="15.875" stroke="none"/>
        <rect x="1.323" y="1.323" width="108.187" height="73.354" rx="14.552" fill="none"/>
      </g>
      <path id="AMEX" d="M91.883,22.978h0l-14.595-.03-3.236-3.564L70.6,22.948H42.177V20.1L40.96,22.948H33.892l-1.218-2.793v2.793H19.01l-1.539-3.659H13.953l-1.539,3.659H0L10.37,0H20.963l1.378,2.7V0H34.729l2.717,5.923L40.1,0H71.016L74.15,3.5,77.513,0h14.37l-10.4,11.538,10.4,11.438ZM45.087,6.825h0l.033,12.9h4.014V3.258h-6.6l-4.9,11.157L32.33,3.258H25.7V18.82L18.823,3.258H12.772L5.5,19.722H9.923l1.562-3.688h8.457l1.565,3.691h8.256V6.822l5.884,12.9h3.59Zm28.964,7.437h0l4.991,5.453h5.218l-7.584-8.181,7.584-8.276H79.269L74.117,8.65,69.126,3.258H52.806V19.715H68.873l5.177-5.453Zm-7.229,2.044H56.837V13.025h8.9V9.674h-8.9V6.668l10.182,0,4.443,4.807-4.64,4.834ZM18.5,12.621H12.929l2.786-6.576L18.5,12.62Z" transform="translate(9.5 26.917)" fill="#fff"/>
    </g>
    <g id="Payment_Method_Mastercard" data-name="Payment Method/Mastercard" transform="translate(548.087 227)">
      <g id="BASE-5" data-name="BASE" fill="#fff" stroke="#d9d9d9" stroke-width="2.646">
        <rect width="110.833" height="76" rx="15.875" stroke="none"/>
        <rect x="1.323" y="1.323" width="108.187" height="73.354" rx="14.552" fill="none"/>
      </g>
      <g id="Mastercard" transform="translate(20.584 15.833)">
        <path id="Left" d="M35.625,38.5a21.377,21.377,0,0,1-14.016,5.222A21.735,21.735,0,0,1,0,21.859,21.735,21.735,0,0,1,21.608,0,21.377,21.377,0,0,1,35.625,5.222,21.377,21.377,0,0,1,49.641,0,21.735,21.735,0,0,1,71.25,21.859,21.735,21.735,0,0,1,49.641,43.719,21.377,21.377,0,0,1,35.625,38.5Z" fill="#ed0006"/>
        <path id="Right" d="M14.016,43.719A21.377,21.377,0,0,1,0,38.5a21.92,21.92,0,0,0,3.146-3.354,21.946,21.946,0,0,0,2.392-3.97,21.878,21.878,0,0,0,2.054-9.313,21.877,21.877,0,0,0-2.054-9.313,21.948,21.948,0,0,0-2.392-3.97A21.923,21.923,0,0,0,0,5.222,21.377,21.377,0,0,1,14.016,0a21.26,21.26,0,0,1,8.411,1.718A21.525,21.525,0,0,1,29.3,6.4a22.081,22.081,0,0,1,4.631,23.966A21.8,21.8,0,0,1,29.3,37.317,21.525,21.525,0,0,1,22.427,42,21.261,21.261,0,0,1,14.016,43.719Z" transform="translate(35.625 0)" fill="#f9a000"/>
        <path id="Middle" d="M0,16.637A21.916,21.916,0,0,1,7.592,0a21.916,21.916,0,0,1,7.592,16.637A21.916,21.916,0,0,1,7.592,33.275,21.916,21.916,0,0,1,0,16.637Z" transform="translate(28.033 5.222)" fill="#ff5e00"/>
      </g>
    </g>
  </g>
</svg>
