<svg width="63" height="42" viewBox="0 0 63 42" fill="none" xmlns="http://www.w3.org/2000/svg">
<path d="M9.99023 36.5L13.4297 27.8281H14.6484L18.0352 36.5H16.7051L15.7617 34.0977H12.0879L11.1328 36.5H9.99023ZM12.4453 33.1836H15.4043L13.9277 29.4453L12.4453 33.1836ZM19.3301 36.5V27.248H20.4844V36.5H19.3301ZM25.6348 36.5C25.2793 36.5977 24.9707 36.6465 24.709 36.6465C24.123 36.6465 23.666 36.4785 23.3379 36.1426C23.0098 35.8066 22.8457 35.3398 22.8457 34.7422V31.0039H22.0488V30.1367H22.8457V28.9824L24 28.8711V30.1367H25.6641V31.0039H24V34.5312C24 35.3633 24.3594 35.7793 25.0781 35.7793C25.2305 35.7793 25.416 35.7539 25.6348 35.7031V36.5ZM31.9512 36.2949C31.1777 36.5293 30.5156 36.6465 29.9648 36.6465C29.0234 36.6465 28.2578 36.3359 27.668 35.7148C27.0781 35.0898 26.7832 34.2812 26.7832 33.2891C26.7832 32.3242 27.043 31.5332 27.5625 30.916C28.0859 30.2988 28.7539 29.9902 29.5664 29.9902C30.3359 29.9902 30.9297 30.2656 31.3477 30.8164C31.7695 31.3633 31.9805 32.1406 31.9805 33.1484L31.9746 33.5H27.9609C28.1289 35.0117 28.8691 35.7676 30.1816 35.7676C30.6621 35.7676 31.252 35.6387 31.9512 35.3809V36.2949ZM28.0137 32.6328H30.8203C30.8203 31.4492 30.3789 30.8574 29.4961 30.8574C28.6094 30.8574 28.1152 31.4492 28.0137 32.6328ZM33.9785 36.5V30.1367H35.1328V31.332C35.5898 30.4414 36.2539 29.9961 37.125 29.9961C37.2422 29.9961 37.3652 30.0059 37.4941 30.0254V31.1035C37.2949 31.0371 37.1191 31.0039 36.9668 31.0039C36.2363 31.0039 35.625 31.4375 35.1328 32.3047V36.5H33.9785ZM38.8887 36.5V30.1367H40.043V31.332C40.6523 30.4414 41.3984 29.9961 42.2812 29.9961C42.8359 29.9961 43.2754 30.1719 43.5996 30.5234C43.9277 30.8711 44.0918 31.3398 44.0918 31.9297V36.5H42.9375V32.3047C42.9375 31.832 42.8672 31.4961 42.7266 31.2969C42.5898 31.0938 42.3613 30.9922 42.041 30.9922C41.334 30.9922 40.668 31.4551 40.043 32.3809V36.5H38.8887ZM49.623 35.6914C48.9316 36.3281 48.2656 36.6465 47.625 36.6465C47.0977 36.6465 46.6602 36.4824 46.3125 36.1543C45.9648 35.8223 45.791 35.4043 45.791 34.9004C45.791 34.2051 46.082 33.6719 46.6641 33.3008C47.25 32.9258 48.0898 32.7383 49.1836 32.7383H49.4531V31.9707C49.4531 31.2324 49.0684 30.8633 48.2988 30.8633C47.7012 30.8633 47.0488 31.0508 46.3418 31.4258V30.4707C47.1191 30.1543 47.8516 29.9961 48.5391 29.9961C49.2461 29.9961 49.7676 30.1582 50.1035 30.4824C50.4395 30.8027 50.6074 31.2988 50.6074 31.9707V34.8535C50.6074 35.5137 50.8105 35.8438 51.2168 35.8438C51.2676 35.8438 51.3418 35.8359 51.4395 35.8203L51.5215 36.459C51.2598 36.584 50.9707 36.6465 50.6543 36.6465C50.1152 36.6465 49.7715 36.3281 49.623 35.6914ZM49.4531 35.0645V33.418L49.084 33.4062C48.4434 33.4062 47.9258 33.5254 47.5312 33.7637C47.1406 34.002 46.9453 34.3184 46.9453 34.7129C46.9453 34.9902 47.043 35.2246 47.2383 35.416C47.4336 35.6074 47.6719 35.7031 47.9531 35.7031C48.4336 35.7031 48.9336 35.4902 49.4531 35.0645ZM55.8105 36.5C55.4551 36.5977 55.1465 36.6465 54.8848 36.6465C54.2988 36.6465 53.8418 36.4785 53.5137 36.1426C53.1855 35.8066 53.0215 35.3398 53.0215 34.7422V31.0039H52.2246V30.1367H53.0215V28.9824L54.1758 28.8711V30.1367H55.8398V31.0039H54.1758V34.5312C54.1758 35.3633 54.5352 35.7793 55.2539 35.7793C55.4062 35.7793 55.5918 35.7539 55.8105 35.7031V36.5ZM62.127 36.2949C61.3535 36.5293 60.6914 36.6465 60.1406 36.6465C59.1992 36.6465 58.4336 36.3359 57.8438 35.7148C57.2539 35.0898 56.959 34.2812 56.959 33.2891C56.959 32.3242 57.2188 31.5332 57.7383 30.916C58.2617 30.2988 58.9297 29.9902 59.7422 29.9902C60.5117 29.9902 61.1055 30.2656 61.5234 30.8164C61.9453 31.3633 62.1562 32.1406 62.1562 33.1484L62.1504 33.5H58.1367C58.3047 35.0117 59.0449 35.7676 60.3574 35.7676C60.8379 35.7676 61.4277 35.6387 62.127 35.3809V36.2949ZM58.1895 32.6328H60.9961C60.9961 31.4492 60.5547 30.8574 59.6719 30.8574C58.7852 30.8574 58.291 31.4492 58.1895 32.6328Z" fill="#1E5F61"/>
<path d="M1.05664 18.5879C1.91354 17.5817 3.10076 16.5388 4.6472 15.9389L4.75459 15.8968C4.91876 15.8361 5.08253 15.781 5.24948 15.7329L7.16211 10.963L5.43875 6.50369L5.43736 6.5023L1.05664 18.5879Z" fill="url(#paint0_linear_16_2558)"/>
<path d="M5.2685 16.4629C5.22327 16.477 5.17944 16.4925 5.13561 16.508C5.09198 16.5235 5.04795 16.5391 5.00432 16.5546C4.97025 16.5673 4.93618 16.5814 4.90231 16.5942C4.8274 16.6238 4.75388 16.6534 4.68036 16.6858C4.60705 16.7169 4.53632 16.7479 4.4642 16.7819C4.41319 16.8058 4.36239 16.8312 4.31298 16.8565C4.27333 16.875 4.23508 16.8947 4.19563 16.9146C4.14622 16.9412 4.09522 16.9681 4.0472 16.9949C4.00198 17.0204 3.95675 17.0457 3.91292 17.0711C3.82386 17.1232 3.7362 17.1755 3.64993 17.2306C1.29222 18.7264 0.107585 21.2625 0.0057776 21.4825C0.00438297 21.4867 0.00298913 21.4897 0.0015945 21.4925C0.0015945 21.4967 0 21.498 0 21.498H3.83104C3.83104 21.4967 3.83223 21.4911 3.83522 21.4825C4.75687 18.7646 7.93044 18.1394 9.88949 19.6043L9.15153 17.2955L8.83495 16.3061C8.30021 16.195 7.79098 16.144 7.30664 16.144C6.56948 16.144 5.8905 16.2618 5.2685 16.4629Z" fill="url(#paint1_linear_16_2558)"/>
<path d="M6.3824 17.5763C6.33717 17.5904 6.29334 17.606 6.24951 17.6215C6.20588 17.637 6.16185 17.6525 6.11802 17.668C6.08415 17.6807 6.05008 17.6949 6.01621 17.7076C5.9413 17.7372 5.86778 17.7667 5.79447 17.7993C5.72095 17.8303 5.65002 17.8613 5.5781 17.8954C5.5273 17.9192 5.47629 17.9447 5.42688 17.9701C5.38724 17.9884 5.34898 18.0081 5.30954 18.028C5.26013 18.0549 5.20912 18.0815 5.16111 18.1084C5.11588 18.1336 5.07066 18.1591 5.02682 18.1846C4.93777 18.2367 4.85011 18.289 4.76404 18.3441C3.31642 19.2628 2.31149 20.5724 1.72754 21.498H3.82964C3.82964 21.4967 3.83083 21.4911 3.83382 21.4825C4.75547 18.7646 7.92904 18.1394 9.88809 19.6043L9.15014 17.2955C8.90149 17.27 8.65883 17.2579 8.42194 17.2579C7.68458 17.2579 7.0052 17.3754 6.3824 17.5763Z" fill="url(#paint2_linear_16_2558)"/>
<path d="M5.43555 6.49976L5.43694 6.50115L7.1603 10.9605L11.2356 21.498H15.7478L9.67361 6.49976H5.43555Z" fill="url(#paint3_linear_16_2558)"/>
<path d="M29.0186 14.8291C29.0186 19.4554 26.863 21.7686 22.5518 21.7686C18.3695 21.7686 16.2783 19.5091 16.2783 14.9902V6.0957H19.7588V15.0332C19.7588 17.5254 20.7327 18.7715 22.6807 18.7715C24.5928 18.7715 25.5488 17.5684 25.5488 15.1621V6.0957H29.0186V14.8291ZM31.6719 20.9092V17.4717C32.2949 17.9945 32.9717 18.3883 33.7021 18.6533C34.4326 18.9111 35.1702 19.04 35.915 19.04C36.3519 19.04 36.7314 19.0007 37.0537 18.9219C37.3831 18.8431 37.6553 18.7357 37.8701 18.5996C38.0921 18.4564 38.2568 18.2917 38.3643 18.1055C38.4717 17.9121 38.5254 17.7044 38.5254 17.4824C38.5254 17.1816 38.4395 16.9131 38.2676 16.6768C38.0957 16.4404 37.8594 16.222 37.5586 16.0215C37.265 15.821 36.9141 15.6276 36.5059 15.4414C36.0977 15.2552 35.6572 15.0654 35.1846 14.8721C33.9814 14.3708 33.0827 13.7585 32.4883 13.0352C31.901 12.3118 31.6074 11.4382 31.6074 10.4141C31.6074 9.61198 31.7686 8.92448 32.0908 8.35156C32.4131 7.77148 32.8499 7.29525 33.4014 6.92285C33.96 6.55046 34.6045 6.27832 35.335 6.10645C36.0654 5.92741 36.8389 5.83789 37.6553 5.83789C38.4574 5.83789 39.1663 5.88802 39.7822 5.98828C40.4053 6.08138 40.9782 6.22819 41.501 6.42871V9.64062C41.2432 9.46159 40.9603 9.30404 40.6523 9.16797C40.3516 9.0319 40.04 8.9209 39.7178 8.83496C39.3955 8.74186 39.0732 8.67383 38.751 8.63086C38.4359 8.58789 38.1351 8.56641 37.8486 8.56641C37.4548 8.56641 37.0967 8.60579 36.7744 8.68457C36.4521 8.75618 36.18 8.86003 35.958 8.99609C35.736 9.13216 35.5641 9.29688 35.4424 9.49023C35.3206 9.67643 35.2598 9.8877 35.2598 10.124C35.2598 10.3818 35.3278 10.6146 35.4639 10.8223C35.5999 11.0228 35.7933 11.2161 36.0439 11.4023C36.2946 11.5814 36.599 11.7604 36.957 11.9395C37.3151 12.1113 37.7197 12.2904 38.1709 12.4766C38.7868 12.7344 39.3382 13.0101 39.8252 13.3037C40.3193 13.5902 40.7419 13.916 41.0928 14.2812C41.4437 14.6465 41.7122 15.0654 41.8984 15.5381C42.0846 16.0036 42.1777 16.5479 42.1777 17.1709C42.1777 18.0303 42.013 18.7536 41.6836 19.3408C41.3613 19.9209 40.9209 20.3936 40.3623 20.7588C39.8037 21.1169 39.152 21.3747 38.4072 21.5322C37.6696 21.6898 36.889 21.7686 36.0654 21.7686C35.2204 21.7686 34.4147 21.6969 33.6484 21.5537C32.8893 21.4105 32.2305 21.1956 31.6719 20.9092ZM48.1826 21.5H44.7129V6.0957H48.1826V21.5ZM50.9863 20.9092V17.4717C51.6094 17.9945 52.2861 18.3883 53.0166 18.6533C53.7471 18.9111 54.4847 19.04 55.2295 19.04C55.6663 19.04 56.0459 19.0007 56.3682 18.9219C56.6976 18.8431 56.9697 18.7357 57.1846 18.5996C57.4066 18.4564 57.5713 18.2917 57.6787 18.1055C57.7861 17.9121 57.8398 17.7044 57.8398 17.4824C57.8398 17.1816 57.7539 16.9131 57.582 16.6768C57.4102 16.4404 57.1738 16.222 56.873 16.0215C56.5794 15.821 56.2285 15.6276 55.8203 15.4414C55.4121 15.2552 54.9717 15.0654 54.499 14.8721C53.2959 14.3708 52.3971 13.7585 51.8027 13.0352C51.2155 12.3118 50.9219 11.4382 50.9219 10.4141C50.9219 9.61198 51.083 8.92448 51.4053 8.35156C51.7275 7.77148 52.1644 7.29525 52.7158 6.92285C53.2744 6.55046 53.9189 6.27832 54.6494 6.10645C55.3799 5.92741 56.1533 5.83789 56.9697 5.83789C57.7718 5.83789 58.4808 5.88802 59.0967 5.98828C59.7197 6.08138 60.2926 6.22819 60.8154 6.42871V9.64062C60.5576 9.46159 60.2747 9.30404 59.9668 9.16797C59.666 9.0319 59.3545 8.9209 59.0322 8.83496C58.71 8.74186 58.3877 8.67383 58.0654 8.63086C57.7503 8.58789 57.4495 8.56641 57.1631 8.56641C56.7692 8.56641 56.4111 8.60579 56.0889 8.68457C55.7666 8.75618 55.4945 8.86003 55.2725 8.99609C55.0505 9.13216 54.8786 9.29688 54.7568 9.49023C54.6351 9.67643 54.5742 9.8877 54.5742 10.124C54.5742 10.3818 54.6423 10.6146 54.7783 10.8223C54.9144 11.0228 55.1077 11.2161 55.3584 11.4023C55.609 11.5814 55.9134 11.7604 56.2715 11.9395C56.6296 12.1113 57.0342 12.2904 57.4854 12.4766C58.1012 12.7344 58.6527 13.0101 59.1396 13.3037C59.6338 13.5902 60.0563 13.916 60.4072 14.2812C60.7581 14.6465 61.0267 15.0654 61.2129 15.5381C61.3991 16.0036 61.4922 16.5479 61.4922 17.1709C61.4922 18.0303 61.3275 18.7536 60.998 19.3408C60.6758 19.9209 60.2354 20.3936 59.6768 20.7588C59.1182 21.1169 58.4665 21.3747 57.7217 21.5322C56.984 21.6898 56.2035 21.7686 55.3799 21.7686C54.5348 21.7686 53.7292 21.6969 52.9629 21.5537C52.2038 21.4105 51.5449 21.1956 50.9863 20.9092Z" fill="#08969B"/>
<defs>
<linearGradient id="paint0_linear_16_2558" x1="6.49787" y1="8.97045" x2="2.60872" y2="16.2281" gradientUnits="userSpaceOnUse">
<stop stop-color="#08969B"/>
<stop offset="1" stop-color="#08979C"/>
</linearGradient>
<linearGradient id="paint1_linear_16_2558" x1="0.000127309" y1="18.8211" x2="9.88949" y2="18.8211" gradientUnits="userSpaceOnUse">
<stop stop-color="#08979C"/>
<stop offset="1" stop-color="#1E5F61"/>
</linearGradient>
<linearGradient id="paint2_linear_16_2558" x1="5.12538" y1="18.0531" x2="6.12614" y2="21.7286" gradientUnits="userSpaceOnUse">
<stop stop-color="#08969B"/>
<stop offset="1" stop-color="#1E5F61"/>
</linearGradient>
<linearGradient id="paint3_linear_16_2558" x1="14.0736" y1="20.8396" x2="6.08235" y2="5.68425" gradientUnits="userSpaceOnUse">
<stop stop-color="#08969B"/>
<stop offset="1" stop-color="#1E5F61"/>
</linearGradient>
</defs>
</svg>
