<svg width="63" height="41" viewBox="0 0 63 41" fill="none" xmlns="http://www.w3.org/2000/svg">
    <path
        d="M9.99023 36L13.4297 27.3281H14.6484L18.0352 36H16.7051L15.7617 33.5977H12.0879L11.1328 36H9.99023ZM12.4453 32.6836H15.4043L13.9277 28.9453L12.4453 32.6836ZM19.3301 36V26.748H20.4844V36H19.3301ZM25.6348 36C25.2793 36.0977 24.9707 36.1465 24.709 36.1465C24.123 36.1465 23.666 35.9785 23.3379 35.6426C23.0098 35.3066 22.8457 34.8398 22.8457 34.2422V30.5039H22.0488V29.6367H22.8457V28.4824L24 28.3711V29.6367H25.6641V30.5039H24V34.0312C24 34.8633 24.3594 35.2793 25.0781 35.2793C25.2305 35.2793 25.416 35.2539 25.6348 35.2031V36ZM31.9512 35.7949C31.1777 36.0293 30.5156 36.1465 29.9648 36.1465C29.0234 36.1465 28.2578 35.8359 27.668 35.2148C27.0781 34.5898 26.7832 33.7812 26.7832 32.7891C26.7832 31.8242 27.043 31.0332 27.5625 30.416C28.0859 29.7988 28.7539 29.4902 29.5664 29.4902C30.3359 29.4902 30.9297 29.7656 31.3477 30.3164C31.7695 30.8633 31.9805 31.6406 31.9805 32.6484L31.9746 33H27.9609C28.1289 34.5117 28.8691 35.2676 30.1816 35.2676C30.6621 35.2676 31.252 35.1387 31.9512 34.8809V35.7949ZM28.0137 32.1328H30.8203C30.8203 30.9492 30.3789 30.3574 29.4961 30.3574C28.6094 30.3574 28.1152 30.9492 28.0137 32.1328ZM33.9785 36V29.6367H35.1328V30.832C35.5898 29.9414 36.2539 29.4961 37.125 29.4961C37.2422 29.4961 37.3652 29.5059 37.4941 29.5254V30.6035C37.2949 30.5371 37.1191 30.5039 36.9668 30.5039C36.2363 30.5039 35.625 30.9375 35.1328 31.8047V36H33.9785ZM38.8887 36V29.6367H40.043V30.832C40.6523 29.9414 41.3984 29.4961 42.2812 29.4961C42.8359 29.4961 43.2754 29.6719 43.5996 30.0234C43.9277 30.3711 44.0918 30.8398 44.0918 31.4297V36H42.9375V31.8047C42.9375 31.332 42.8672 30.9961 42.7266 30.7969C42.5898 30.5938 42.3613 30.4922 42.041 30.4922C41.334 30.4922 40.668 30.9551 40.043 31.8809V36H38.8887ZM49.623 35.1914C48.9316 35.8281 48.2656 36.1465 47.625 36.1465C47.0977 36.1465 46.6602 35.9824 46.3125 35.6543C45.9648 35.3223 45.791 34.9043 45.791 34.4004C45.791 33.7051 46.082 33.1719 46.6641 32.8008C47.25 32.4258 48.0898 32.2383 49.1836 32.2383H49.4531V31.4707C49.4531 30.7324 49.0684 30.3633 48.2988 30.3633C47.7012 30.3633 47.0488 30.5508 46.3418 30.9258V29.9707C47.1191 29.6543 47.8516 29.4961 48.5391 29.4961C49.2461 29.4961 49.7676 29.6582 50.1035 29.9824C50.4395 30.3027 50.6074 30.7988 50.6074 31.4707V34.3535C50.6074 35.0137 50.8105 35.3438 51.2168 35.3438C51.2676 35.3438 51.3418 35.3359 51.4395 35.3203L51.5215 35.959C51.2598 36.084 50.9707 36.1465 50.6543 36.1465C50.1152 36.1465 49.7715 35.8281 49.623 35.1914ZM49.4531 34.5645V32.918L49.084 32.9062C48.4434 32.9062 47.9258 33.0254 47.5312 33.2637C47.1406 33.502 46.9453 33.8184 46.9453 34.2129C46.9453 34.4902 47.043 34.7246 47.2383 34.916C47.4336 35.1074 47.6719 35.2031 47.9531 35.2031C48.4336 35.2031 48.9336 34.9902 49.4531 34.5645ZM55.8105 36C55.4551 36.0977 55.1465 36.1465 54.8848 36.1465C54.2988 36.1465 53.8418 35.9785 53.5137 35.6426C53.1855 35.3066 53.0215 34.8398 53.0215 34.2422V30.5039H52.2246V29.6367H53.0215V28.4824L54.1758 28.3711V29.6367H55.8398V30.5039H54.1758V34.0312C54.1758 34.8633 54.5352 35.2793 55.2539 35.2793C55.4062 35.2793 55.5918 35.2539 55.8105 35.2031V36ZM62.127 35.7949C61.3535 36.0293 60.6914 36.1465 60.1406 36.1465C59.1992 36.1465 58.4336 35.8359 57.8438 35.2148C57.2539 34.5898 56.959 33.7812 56.959 32.7891C56.959 31.8242 57.2188 31.0332 57.7383 30.416C58.2617 29.7988 58.9297 29.4902 59.7422 29.4902C60.5117 29.4902 61.1055 29.7656 61.5234 30.3164C61.9453 30.8633 62.1562 31.6406 62.1562 32.6484L62.1504 33H58.1367C58.3047 34.5117 59.0449 35.2676 60.3574 35.2676C60.8379 35.2676 61.4277 35.1387 62.127 34.8809V35.7949ZM58.1895 32.1328H60.9961C60.9961 30.9492 60.5547 30.3574 59.6719 30.3574C58.7852 30.3574 58.291 30.9492 58.1895 32.1328Z"
        fill="#C51C2E" />
    <path
        d="M1.05664 18.0879C1.91354 17.0817 3.10076 16.0388 4.6472 15.4389L4.75459 15.3968C4.91876 15.3361 5.08253 15.281 5.24948 15.2329L7.16211 10.463L5.43875 6.00369L5.43736 6.0023L1.05664 18.0879Z"
        fill="url(#paint0_linear_12_1150)" />
    <path
        d="M5.2685 15.9629C5.22327 15.977 5.17944 15.9925 5.13561 16.008C5.09198 16.0235 5.04795 16.0391 5.00432 16.0546C4.97025 16.0673 4.93618 16.0814 4.90231 16.0942C4.8274 16.1238 4.75388 16.1534 4.68036 16.1858C4.60705 16.2169 4.53632 16.2479 4.4642 16.2819C4.41319 16.3058 4.36239 16.3312 4.31298 16.3565C4.27333 16.375 4.23508 16.3947 4.19563 16.4146C4.14622 16.4412 4.09522 16.4681 4.0472 16.4949C4.00198 16.5204 3.95675 16.5457 3.91292 16.5711C3.82386 16.6232 3.7362 16.6755 3.64993 16.7306C1.29222 18.2264 0.107585 20.7625 0.0057776 20.9825C0.00438298 20.9867 0.00298913 20.9897 0.0015945 20.9925C0.0015945 20.9967 0 20.998 0 20.998H3.83104C3.83104 20.9967 3.83223 20.9911 3.83522 20.9825C4.75687 18.2646 7.93044 17.6394 9.88949 19.1043L9.15153 16.7955L8.83495 15.8061C8.30021 15.695 7.79098 15.644 7.30664 15.644C6.56948 15.644 5.8905 15.7618 5.2685 15.9629Z"
        fill="url(#paint1_linear_12_1150)" />
    <path
        d="M6.3824 17.0763C6.33717 17.0904 6.29334 17.106 6.24951 17.1215C6.20588 17.137 6.16185 17.1525 6.11802 17.168C6.08415 17.1807 6.05008 17.1949 6.01621 17.2076C5.9413 17.2372 5.86778 17.2667 5.79447 17.2993C5.72095 17.3303 5.65002 17.3613 5.5781 17.3954C5.5273 17.4192 5.47629 17.4447 5.42688 17.4701C5.38724 17.4884 5.34898 17.5081 5.30954 17.528C5.26013 17.5549 5.20912 17.5815 5.16111 17.6084C5.11588 17.6336 5.07066 17.6591 5.02682 17.6846C4.93777 17.7367 4.85011 17.789 4.76404 17.8441C3.31642 18.7628 2.31149 20.0724 1.72754 20.998H3.82964C3.82964 20.9967 3.83083 20.9911 3.83382 20.9825C4.75547 18.2646 7.92904 17.6394 9.88809 19.1043L9.15014 16.7955C8.90149 16.77 8.65883 16.7579 8.42194 16.7579C7.68458 16.7579 7.0052 16.8754 6.3824 17.0763Z"
        fill="url(#paint2_linear_12_1150)" />
    <path
        d="M5.43555 5.99976L5.43694 6.00115L7.1603 10.4605L11.2356 20.998H15.7478L9.67361 5.99976H5.43555Z"
        fill="url(#paint3_linear_12_1150)" />
    <path
        d="M29.0186 14.3291C29.0186 18.9554 26.863 21.2686 22.5518 21.2686C18.3695 21.2686 16.2783 19.0091 16.2783 14.4902V5.5957H19.7588V14.5332C19.7588 17.0254 20.7327 18.2715 22.6807 18.2715C24.5928 18.2715 25.5488 17.0684 25.5488 14.6621V5.5957H29.0186V14.3291ZM31.6719 20.4092V16.9717C32.2949 17.4945 32.9717 17.8883 33.7021 18.1533C34.4326 18.4111 35.1702 18.54 35.915 18.54C36.3519 18.54 36.7314 18.5007 37.0537 18.4219C37.3831 18.3431 37.6553 18.2357 37.8701 18.0996C38.0921 17.9564 38.2568 17.7917 38.3643 17.6055C38.4717 17.4121 38.5254 17.2044 38.5254 16.9824C38.5254 16.6816 38.4395 16.4131 38.2676 16.1768C38.0957 15.9404 37.8594 15.722 37.5586 15.5215C37.265 15.321 36.9141 15.1276 36.5059 14.9414C36.0977 14.7552 35.6572 14.5654 35.1846 14.3721C33.9814 13.8708 33.0827 13.2585 32.4883 12.5352C31.901 11.8118 31.6074 10.9382 31.6074 9.91406C31.6074 9.11198 31.7686 8.42448 32.0908 7.85156C32.4131 7.27148 32.8499 6.79525 33.4014 6.42285C33.96 6.05046 34.6045 5.77832 35.335 5.60645C36.0654 5.42741 36.8389 5.33789 37.6553 5.33789C38.4574 5.33789 39.1663 5.38802 39.7822 5.48828C40.4053 5.58138 40.9782 5.72819 41.501 5.92871V9.14062C41.2432 8.96159 40.9603 8.80404 40.6523 8.66797C40.3516 8.5319 40.04 8.4209 39.7178 8.33496C39.3955 8.24186 39.0732 8.17383 38.751 8.13086C38.4359 8.08789 38.1351 8.06641 37.8486 8.06641C37.4548 8.06641 37.0967 8.10579 36.7744 8.18457C36.4521 8.25618 36.18 8.36003 35.958 8.49609C35.736 8.63216 35.5641 8.79688 35.4424 8.99023C35.3206 9.17643 35.2598 9.3877 35.2598 9.62402C35.2598 9.88184 35.3278 10.1146 35.4639 10.3223C35.5999 10.5228 35.7933 10.7161 36.0439 10.9023C36.2946 11.0814 36.599 11.2604 36.957 11.4395C37.3151 11.6113 37.7197 11.7904 38.1709 11.9766C38.7868 12.2344 39.3382 12.5101 39.8252 12.8037C40.3193 13.0902 40.7419 13.416 41.0928 13.7812C41.4437 14.1465 41.7122 14.5654 41.8984 15.0381C42.0846 15.5036 42.1777 16.0479 42.1777 16.6709C42.1777 17.5303 42.013 18.2536 41.6836 18.8408C41.3613 19.4209 40.9209 19.8936 40.3623 20.2588C39.8037 20.6169 39.152 20.8747 38.4072 21.0322C37.6696 21.1898 36.889 21.2686 36.0654 21.2686C35.2204 21.2686 34.4147 21.1969 33.6484 21.0537C32.8893 20.9105 32.2305 20.6956 31.6719 20.4092ZM48.1826 21H44.7129V5.5957H48.1826V21ZM50.9863 20.4092V16.9717C51.6094 17.4945 52.2861 17.8883 53.0166 18.1533C53.7471 18.4111 54.4847 18.54 55.2295 18.54C55.6663 18.54 56.0459 18.5007 56.3682 18.4219C56.6976 18.3431 56.9697 18.2357 57.1846 18.0996C57.4066 17.9564 57.5713 17.7917 57.6787 17.6055C57.7861 17.4121 57.8398 17.2044 57.8398 16.9824C57.8398 16.6816 57.7539 16.4131 57.582 16.1768C57.4102 15.9404 57.1738 15.722 56.873 15.5215C56.5794 15.321 56.2285 15.1276 55.8203 14.9414C55.4121 14.7552 54.9717 14.5654 54.499 14.3721C53.2959 13.8708 52.3971 13.2585 51.8027 12.5352C51.2155 11.8118 50.9219 10.9382 50.9219 9.91406C50.9219 9.11198 51.083 8.42448 51.4053 7.85156C51.7275 7.27148 52.1644 6.79525 52.7158 6.42285C53.2744 6.05046 53.9189 5.77832 54.6494 5.60645C55.3799 5.42741 56.1533 5.33789 56.9697 5.33789C57.7718 5.33789 58.4808 5.38802 59.0967 5.48828C59.7197 5.58138 60.2926 5.72819 60.8154 5.92871V9.14062C60.5576 8.96159 60.2747 8.80404 59.9668 8.66797C59.666 8.5319 59.3545 8.4209 59.0322 8.33496C58.71 8.24186 58.3877 8.17383 58.0654 8.13086C57.7503 8.08789 57.4495 8.06641 57.1631 8.06641C56.7692 8.06641 56.4111 8.10579 56.0889 8.18457C55.7666 8.25618 55.4945 8.36003 55.2725 8.49609C55.0505 8.63216 54.8786 8.79688 54.7568 8.99023C54.6351 9.17643 54.5742 9.3877 54.5742 9.62402C54.5742 9.88184 54.6423 10.1146 54.7783 10.3223C54.9144 10.5228 55.1077 10.7161 55.3584 10.9023C55.609 11.0814 55.9134 11.2604 56.2715 11.4395C56.6296 11.6113 57.0342 11.7904 57.4854 11.9766C58.1012 12.2344 58.6527 12.5101 59.1396 12.8037C59.6338 13.0902 60.0563 13.416 60.4072 13.7812C60.7581 14.1465 61.0267 14.5654 61.2129 15.0381C61.3991 15.5036 61.4922 16.0479 61.4922 16.6709C61.4922 17.5303 61.3275 18.2536 60.998 18.8408C60.6758 19.4209 60.2354 19.8936 59.6768 20.2588C59.1182 20.6169 58.4665 20.8747 57.7217 21.0322C56.984 21.1898 56.2035 21.2686 55.3799 21.2686C54.5348 21.2686 53.7292 21.1969 52.9629 21.0537C52.2038 20.9105 51.5449 20.6956 50.9863 20.4092Z"
        fill="#C51C2E" />
    <defs>
        <linearGradient id="paint0_linear_12_1150" x1="6.49787" y1="8.47045" x2="2.60872"
            y2="15.7281" gradientUnits="userSpaceOnUse">
            <stop stop-color="#C51C2E" />
            <stop offset="1" stop-color="#FF4256" />
        </linearGradient>
        <linearGradient id="paint1_linear_12_1150" x1="0.000127309" y1="18.3211" x2="9.88949"
            y2="18.3211" gradientUnits="userSpaceOnUse">
            <stop stop-color="#FF4256" />
            <stop offset="1" stop-color="#C51C2E" />
        </linearGradient>
        <linearGradient id="paint2_linear_12_1150" x1="5.12538" y1="17.5531" x2="6.12614"
            y2="21.2286" gradientUnits="userSpaceOnUse">
            <stop stop-color="#C51C2E" />
            <stop offset="1" stop-color="#C51C2E" />
        </linearGradient>
        <linearGradient id="paint3_linear_12_1150" x1="14.0736" y1="20.3396" x2="6.08235"
            y2="5.18425" gradientUnits="userSpaceOnUse">
            <stop stop-color="#C51C2E" />
            <stop offset="1" stop-color="#FF4256" />
        </linearGradient>
    </defs>
</svg>
